<svg xmlns="http://www.w3.org/2000/svg" width="66.562" height="66.56" viewBox="0 0 66.562 66.56">
  <defs>
    <style>
      .cls-1 {
        fill: #f1f1f1;
        fill-rule: evenodd;
      }
    </style>
  </defs>
  <path id="Shape" class="cls-1" d="M688.5,1475.13a16,16,0,1,0,16,15.99A16,16,0,0,0,688.5,1475.13Zm0,23.75a7.755,7.755,0,1,1,7.759-7.76A7.757,7.757,0,0,1,688.5,1498.88Zm0-40.17-7.245,14.89,7.245-3.02,7.245,3.02Zm0,66.58,7.245-14.88-7.245,3.01-7.245-3.01ZM721.794,1492l-14.889-7.24,3.011,7.24-3.011,7.24Zm-66.588,0,14.889,7.24-3.011-7.24,3.011-7.24Z" transform="translate(-655.219 -1458.72)"/>
</svg>
